<?xml version="1.0" encoding="UTF-8"?>
<svg version="1.1" xmlns="http://www.w3.org/2000/svg" width="1024" height="1024">
<path d="M0 0 C1.49436969 0.23110044 2.98519985 0.48574331 4.47265625 0.7578125 C5.6946875 0.96676147 5.6946875 0.96676147 6.94140625 1.17993164 C14.70844202 2.58620551 22.37405318 4.42921983 30.03515625 6.3203125 C31.20296631 6.60825684 32.37077637 6.89620117 33.57397461 7.19287109 C39.03003061 8.5824197 44.45521776 10.07133548 49.81640625 11.79296875 C51.14768555 12.21461304 51.14768555 12.21461304 52.50585938 12.64477539 C54.53515625 13.8828125 54.53515625 13.8828125 55.46606445 16.03149414 C55.55802336 19.82650512 54.54564836 23.0383429 53.359375 26.59375 C53.11532425 27.35660309 52.8712735 28.11945618 52.61982727 28.90542603 C51.83173231 31.35991781 51.02759525 33.80879955 50.22265625 36.2578125 C49.72353193 37.80303781 49.22547749 39.34860912 48.72851562 40.89453125 C47.64549623 44.2560492 46.55510117 47.61506779 45.45996094 50.97265625 C43.22039074 57.84204759 40.99950755 64.71745161 38.78125 71.59375 C38.57043604 72.24723545 38.35962208 72.9007209 38.14241982 73.57400894 C33.48360447 88.01944696 28.85605439 102.47480323 24.24804688 116.93652344 C23.35407156 119.7417028 22.45848916 122.54636137 21.56152344 125.35058594 C15.66135748 143.7988511 9.9449107 162.28350355 4.53515625 180.8828125 C8.05897312 178.33676653 8.05897312 178.33676653 10.53515625 174.8828125 C11.19515625 174.8828125 11.85515625 174.8828125 12.53515625 174.8828125 C12.53515625 174.2228125 12.53515625 173.5628125 12.53515625 172.8828125 C14.15941385 171.15257641 15.82117013 169.52175036 17.53515625 167.8828125 C18.88850847 166.53980895 20.23908245 165.1940029 21.58764648 163.84619141 C22.34871201 163.08835358 23.10977753 162.33051575 23.89390564 161.54971313 C27.34620675 158.11080812 30.79585582 154.66924803 34.24536133 151.22753906 C36.06087014 149.41706837 37.87727418 147.60749494 39.69458008 145.79882812 C42.33002649 143.17556185 44.96218538 140.54903463 47.59375 137.921875 C48.40017441 137.12061188 49.20659882 136.31934875 50.03746033 135.49380493 C53.49458192 132.03702502 56.84597463 128.58158409 59.96899414 124.81787109 C60.81582764 123.84930176 61.66266113 122.88073242 62.53515625 121.8828125 C63.19515625 121.8828125 63.85515625 121.8828125 64.53515625 121.8828125 C64.79271194 121.29961243 65.05026764 120.71641235 65.31562805 120.11553955 C66.64100783 117.68901815 68.08354923 116.10005322 70.04760742 114.15917969 C70.76563034 113.44453552 71.48365326 112.72989136 72.22343445 111.99359131 C73.38900627 110.84820892 73.38900627 110.84820892 74.578125 109.6796875 C75.78085808 108.48475677 75.78085808 108.48475677 77.00788879 107.26568604 C79.57478043 104.716605 82.14823183 102.1742839 84.72265625 99.6328125 C87.27840017 97.10481431 89.83263015 94.57533417 92.38386536 92.04278564 C93.97047645 90.46828805 95.55975219 88.89646936 97.15214539 87.32781982 C101.25741087 83.25909254 105.16389913 79.09705332 108.93415833 74.71658325 C112.65708664 70.4523697 116.72379747 66.50823643 120.72509766 62.50756836 C122.30140485 60.92904101 123.86949541 59.34262933 125.4375 57.75585938 C126.443522 56.7469086 127.45001509 55.73842727 128.45703125 54.73046875 C129.3603418 53.82304932 130.26365234 52.91562988 131.19433594 51.98071289 C133.53515625 49.8828125 133.53515625 49.8828125 136.53515625 48.8828125 C138.8828125 50.4375 138.8828125 50.4375 141.59765625 52.7578125 C142.57863281 53.59054688 143.55960938 54.42328125 144.5703125 55.28125 C148.08315851 58.36366824 151.55398121 61.48843967 155.0078125 64.63671875 C157.60478018 66.94468848 160.26919638 69.13837113 162.97265625 71.3203125 C167.90565857 75.30600996 172.57837945 79.50289916 177.22265625 83.81640625 C179.55318316 85.99650887 179.55318316 85.99650887 182.53515625 87.8828125 C181.96522547 91.63009424 180.4466745 93.33511003 177.78125 95.96484375 C177.00845703 96.73248047 176.23566406 97.50011719 175.43945312 98.29101562 C174.62541016 99.08443359 173.81136719 99.87785156 172.97265625 100.6953125 C172.18568359 101.47712891 171.39871094 102.25894531 170.58789062 103.06445312 C166.99268656 106.61223488 163.36394495 110.07662974 159.53125 113.3671875 C153.93706088 118.18702197 148.86791762 123.54106623 143.71875 128.82617188 C142.94917969 129.60669922 142.17960937 130.38722656 141.38671875 131.19140625 C140.69400879 131.90095459 140.00129883 132.61050293 139.28759766 133.34155273 C137.53515625 134.8828125 137.53515625 134.8828125 135.53515625 134.8828125 C135.53515625 135.5428125 135.53515625 136.2028125 135.53515625 136.8828125 C134.13232422 138.26000977 134.13232422 138.26000977 132.15234375 139.88671875 C126.0885548 145.04053849 120.62748485 150.77902481 115.07421875 156.47070312 C113.8521875 157.70916992 113.8521875 157.70916992 112.60546875 158.97265625 C111.87086426 159.72409912 111.13625977 160.47554199 110.37939453 161.24975586 C108.53515625 162.8828125 108.53515625 162.8828125 106.53515625 162.8828125 C106.20515625 163.8728125 105.87515625 164.8628125 105.53515625 165.8828125 C103.98165894 167.41383362 103.98165894 167.41383362 101.99560547 169.04907227 C97.47703306 172.88534363 93.32398705 177.0004478 89.16796875 181.22265625 C87.60820131 182.79504925 86.04830177 184.36731121 84.48828125 185.93945312 C82.05702594 188.3956837 79.62741354 190.8535004 77.20019531 193.3137207 C74.83959086 195.70434085 72.47295822 198.08885724 70.10546875 200.47265625 C69.01022385 201.58809059 69.01022385 201.58809059 67.89285278 202.72605896 C66.8807222 203.74325768 66.8807222 203.74325768 65.84814453 204.78100586 C65.25494415 205.38166367 64.66174377 205.98232147 64.05056763 206.60118103 C62.53515625 207.8828125 62.53515625 207.8828125 60.53515625 207.8828125 C60.30828125 208.4603125 60.08140625 209.0378125 59.84765625 209.6328125 C58.20477602 212.4491786 56.13982398 213.96358364 53.53515625 215.8828125 C63.07922474 213.38713074 72.48846267 210.48573546 81.91015625 207.5703125 C83.61586236 207.04370788 85.32159211 206.51717979 87.02734375 205.99072266 C91.58562793 204.58303116 96.14299214 203.17238399 100.70007324 201.76080322 C103.5501814 200.8781594 106.40055345 199.99637221 109.25097656 199.11474609 C136.49533248 190.68720582 136.49533248 190.68720582 163.66015625 182.0078125 C168.11953948 180.56459506 172.57978478 179.12407854 177.04101562 177.68658447 C178.86015088 177.10034249 180.6791416 176.51365193 182.49804688 175.92669678 C189.37578677 173.70870358 196.25803975 171.50542982 203.1449585 169.31610107 C205.47723984 168.57247455 207.80819318 167.82466927 210.13775635 167.0725708 C213.41525419 166.01519772 216.69716279 164.9727681 219.98046875 163.93359375 C220.97175781 163.6102153 221.96304688 163.28683685 222.984375 162.95365906 C223.90621582 162.66513565 224.82805664 162.37661224 225.77783203 162.0793457 C226.9799382 161.69490044 226.9799382 161.69490044 228.20632935 161.3026886 C230.91801569 160.81378482 232.88772855 161.19196948 235.53515625 161.8828125 C235.67883133 162.42436981 235.82250641 162.96592712 235.97053528 163.52389526 C237.47753212 169.20296746 238.98679054 174.88143526 240.49731445 180.55957031 C241.05940849 182.6736765 241.6209418 184.78793186 242.18188477 186.90234375 C242.99214685 189.95613153 243.80447986 193.00936227 244.6171875 196.0625 C244.864189 196.99520721 245.11119049 197.92791443 245.36567688 198.8888855 C245.72571053 200.23915329 245.72571053 200.23915329 246.09301758 201.61669922 C246.32542145 202.48953552 246.55782532 203.36237183 246.79727173 204.26165771 C247.7768234 207.7412761 248.91136945 211.16666935 250.07914734 214.58743286 C250.61725283 217.29605624 250.22890784 219.23199296 249.53515625 221.8828125 C195.24800878 237.71078754 140.91562241 253.37832411 86.53515625 268.8828125 C100.34070406 271.68708441 114.16923692 274.32865363 128.02734375 276.859375 C130.05127153 277.2302326 132.07517117 277.60124383 134.0990448 277.97239685 C138.35112107 278.75191588 142.60336364 279.53051844 146.85574341 280.30838013 C153.45948201 281.51650063 160.06267966 282.72755913 166.66577148 283.93920898 C183.31642238 286.99423834 199.96739881 290.04748262 216.61956787 293.09422684 C222.47671131 294.16611881 228.33316324 295.24173188 234.18927002 296.3192749 C236.45181758 296.73484982 238.7146336 297.14896588 240.97772217 297.56158447 C244.00924438 298.11436293 247.03987937 298.67175606 250.0703125 299.23046875 C251.36753487 299.46509071 251.36753487 299.46509071 252.69096375 299.70445251 C258.42098422 300.76864047 258.42098422 300.76864047 259.53515625 301.8828125 C259.3522551 308.77457384 257.93297742 315.57953335 256.5390625 322.30859375 C256.24865334 323.73452095 256.24865334 323.73452095 255.95237732 325.18925476 C255.54549386 327.18046516 255.1361267 329.17116955 254.72436523 331.16137695 C254.09603899 334.20314174 253.47818213 337.24690601 252.86132812 340.29101562 C252.46286142 342.2345026 252.06379395 344.17786651 251.6640625 346.12109375 C251.48065811 347.02636307 251.29725372 347.93163239 251.10829163 348.86433411 C250.23528676 353.05268392 249.32982657 356.97052216 247.53515625 360.8828125 C240.59654788 360.31830864 233.87938645 359.28548492 227.06640625 357.87109375 C225.5587394 357.56406021 225.5587394 357.56406021 224.02061462 357.25082397 C220.69102452 356.57092353 217.36307427 355.88334711 214.03515625 355.1953125 C211.66938803 354.70986776 209.30358312 354.22460176 206.93774414 353.73950195 C184.87630543 349.20371771 162.84355444 344.53040719 140.81640625 339.83129883 C123.40230733 336.11713949 105.97625543 332.46787744 88.53515625 328.8828125 C94.19861469 334.54627094 100.50898127 339.48930993 106.8215332 344.39648438 C111.58197947 348.10765602 116.25873983 351.91107149 120.91015625 355.7578125 C130.70229118 363.85474868 140.52933321 371.90932407 150.47265625 379.8203125 C157.23570864 385.21247589 163.88365534 390.74640165 170.55517578 396.25097656 C174.87110966 399.80802983 179.20414719 403.34414309 183.53515625 406.8828125 C184.37691406 407.57246094 185.21867188 408.26210938 186.0859375 408.97265625 C203.32656649 423.93935763 203.32656649 423.93935763 221.76953125 437.25 C223.53515625 438.8828125 223.53515625 438.8828125 224.06640625 441.1875 C223.34057755 444.87001327 221.3786808 447.19498953 219.03515625 450.0078125 C218.11695377 451.14850503 217.20031217 452.29045558 216.28515625 453.43359375 C215.82367187 454.0054541 215.3621875 454.57731445 214.88671875 455.16650391 C212.14821531 458.64404711 209.65719614 462.30176749 207.12890625 465.93359375 C206.60296875 466.57683594 206.07703125 467.22007812 205.53515625 467.8828125 C204.87515625 467.8828125 204.21515625 467.8828125 203.53515625 467.8828125 C203.25736328 468.47304199 202.97957031 469.06327148 202.69335938 469.67138672 C201.60854809 471.74268111 200.45144694 473.4370123 199.00390625 475.265625 C198.52308594 475.87535156 198.04226563 476.48507812 197.546875 477.11328125 C197.04800781 477.73847656 196.54914062 478.36367188 196.03515625 479.0078125 C195.53628906 479.64074219 195.03742187 480.27367187 194.5234375 480.92578125 C192.59934225 483.35540287 190.72900855 485.6889602 188.53515625 487.8828125 C183.86954465 487.69302491 181.67238527 485.53792355 178.41015625 482.3828125 C177.43574901 481.45995859 176.459131 480.53943411 175.48046875 479.62109375 C174.98836914 479.15783691 174.49626953 478.69458008 173.98925781 478.21728516 C171.8317671 476.23729116 169.56630516 474.40544573 167.28515625 472.5703125 C161.52416659 467.91562954 155.94435181 463.06956975 150.359375 458.20703125 C146.7674768 455.07989218 143.15491274 451.97762484 139.53515625 448.8828125 C134.68585674 444.73438563 129.85444036 440.56606788 125.03515625 436.3828125 C117.89454016 430.18555738 110.71980803 424.02891496 103.53515625 417.8828125 C101.22219087 415.90418881 98.9096714 413.92504645 96.59765625 411.9453125 C96.0255542 411.45571045 95.45345215 410.9661084 94.86401367 410.46166992 C91.78898676 407.82673072 88.72423861 405.18070333 85.671875 402.51953125 C78.7419144 396.47922775 71.77413148 390.55243953 64.53515625 384.8828125 C67.92355381 393.87081091 71.51670435 402.75301878 75.23284912 411.60903931 C76.89626951 415.57566137 78.55074039 419.54602202 80.20703125 423.515625 C80.92248329 425.22951004 81.63797861 426.943377 82.35351562 428.65722656 C82.71340576 429.51932739 83.0732959 430.38142822 83.4440918 431.26965332 C84.16606543 432.99881976 84.88823048 434.72790629 85.6105957 436.45690918 C91.64680293 450.90720268 97.62045257 465.38235262 103.53515625 479.8828125 C103.79666222 480.52353951 104.05816818 481.16426651 104.32759857 481.82440948 C107.8225346 490.38891806 111.30102452 498.95981688 114.74803925 507.54373646 C116.18710597 511.12725538 117.63097188 514.70863761 119.08758545 518.2850647 C120.46197206 521.66074691 121.82120833 525.04213963 123.16913033 528.42847252 C123.9142101 530.28946691 124.67459568 532.14431005 125.43528748 533.99897766 C125.87534622 535.11322617 126.31540497 536.22747467 126.76879883 537.37548828 C127.16005447 538.34704865 127.55131012 539.31860901 127.954422 540.3196106 C128.53515625 542.8828125 128.53515625 542.8828125 127.76690674 545.14169312 C126.17765391 547.38815369 124.63531462 548.22669916 122.1875 549.4765625 C121.28386719 549.94408936 120.38023437 550.41161621 119.44921875 550.89331055 C117.97582031 551.63061401 117.97582031 551.63061401 116.47265625 552.3828125 C115.46074219 552.8981958 114.44882812 553.4135791 113.40625 553.94458008 C110.12369074 555.60672769 106.8307537 557.2466834 103.53515625 558.8828125 C101.84156982 559.73045166 101.84156982 559.73045166 100.11376953 560.59521484 C96.76110092 562.26795752 93.40031015 563.92284911 90.03515625 565.5703125 C88.99222412 566.08722656 87.94929199 566.60414063 86.87475586 567.13671875 C81.69963058 569.63339723 77.29770262 571.53479355 71.53515625 571.8828125 C69.09109005 568.0841605 67.44559738 564.31072804 65.890625 560.07421875 C65.64473633 559.40869492 65.39884766 558.74317108 65.14550781 558.05747986 C64.33312335 555.85514647 63.52793318 553.65025359 62.72265625 551.4453125 C62.14476416 549.87482438 61.56638507 548.30451538 60.98754883 546.734375 C59.77403577 543.4399932 58.56347913 540.14454805 57.35546875 536.84814453 C55.6178965 532.10669455 53.87453257 527.36739619 52.12890625 522.62890625 C51.84934586 521.86999588 51.56978546 521.11108551 51.28175354 520.32917786 C50.71441075 518.78913101 50.14703293 517.24909707 49.57962036 515.70907593 C48.71543737 513.36321656 47.85171086 511.01718948 46.98803711 508.67114258 C42.77565183 497.23168367 38.54760832 485.79807904 34.30215454 474.37084961 C33.64308879 472.59646464 32.98450917 470.821899 32.32650757 469.04711914 C26.84997057 454.27907408 21.21210314 439.5748818 15.53515625 424.8828125 C15.36722061 426.1290892 15.19928497 427.37536591 15.02626038 428.65940857 C14.20782787 434.73260369 13.38910873 440.80576016 12.5703125 446.87890625 C12.41730368 448.01385403 12.26429485 449.1488018 12.1066494 450.31814194 C10.25051095 464.08462017 8.39147008 477.85070002 6.52636719 491.6159668 C6.27013297 493.50723344 6.27013297 493.50723344 6.00872231 495.4367075 C5.32054853 500.51584724 4.63233976 505.59498222 3.94381332 510.67407417 C2.04426462 524.68824488 0.15405482 538.70350328 -1.70436096 552.72319031 C-2.42336442 558.14528632 -3.15074541 563.56624269 -3.88183117 568.98672199 C-4.34420035 572.41839375 -4.80173199 575.85055783 -5.24777222 579.28439331 C-5.73007164 582.98167842 -6.22812833 586.67648731 -6.73046875 590.37109375 C-6.86423416 591.43020966 -6.99799957 592.48932556 -7.13581848 593.58053589 C-7.33397408 595.00113815 -7.33397408 595.00113815 -7.53613281 596.45043945 C-7.64411194 597.26591751 -7.75209106 598.08139557 -7.86334229 598.92158508 C-8.46484375 600.8828125 -8.46484375 600.8828125 -11.46484375 602.8828125 C-13.47773743 603.19924927 -13.47773743 603.19924927 -15.8059082 603.29345703 C-16.68144852 603.33334747 -17.55698883 603.37323792 -18.45906067 603.41433716 C-19.87924751 603.46447464 -19.87924751 603.46447464 -21.328125 603.515625 C-22.31169479 603.55718719 -23.29526459 603.59874939 -24.30863953 603.64157104 C-26.39739696 603.7281291 -28.48634397 603.81020952 -30.57543945 603.88818359 C-33.72717897 604.00593825 -36.87817292 604.13640956 -40.02929688 604.26953125 C-50.51266656 604.69930793 -60.97125014 605.02758342 -71.46484375 604.8828125 C-73.15596899 601.2570606 -73.66393034 598.88976484 -73.11621094 594.93408203 C-72.98778809 593.95967667 -72.85936523 592.9852713 -72.72705078 591.9813385 C-72.57349121 590.92015305 -72.41993164 589.85896759 -72.26171875 588.765625 C-72.10848145 587.63366196 -71.95524414 586.50169891 -71.79736328 585.33543396 C-71.28252806 581.55770004 -70.74876661 577.78289224 -70.21484375 574.0078125 C-69.84823399 571.34771294 -69.48263411 568.68749141 -69.11816406 566.02709961 C-68.12901328 558.8295534 -67.11991696 551.63489121 -66.10644531 544.44073486 C-65.45482322 539.81489291 -64.80719268 535.188497 -64.16015625 530.56201172 C-61.94503897 514.72956 -59.71448482 498.89936541 -57.46865082 483.07124329 C-55.42765201 468.68054662 -53.43811864 454.28295216 -51.46484375 439.8828125 C-52.78484375 439.8828125 -54.10484375 439.8828125 -55.46484375 439.8828125 C-57.06402162 441.52484263 -57.06402162 441.52484263 -58.35546875 443.81640625 C-58.89171875 444.68007813 -59.42796875 445.54375 -59.98046875 446.43359375 C-60.5528125 447.38621094 -61.12515625 448.33882812 -61.71484375 449.3203125 C-62.96925287 451.35075439 -64.22449292 453.38068311 -65.48046875 455.41015625 C-66.45983398 457.00706299 -66.45983398 457.00706299 -67.45898438 458.63623047 C-70.72813401 463.92750991 -74.09992802 469.15212816 -77.46484375 474.3828125 C-78.8170046 476.49310631 -80.16856928 478.60378224 -81.51953125 480.71484375 C-82.50904785 482.26099365 -82.50904785 482.26099365 -83.51855469 483.83837891 C-88.84925244 492.17678847 -94.15565446 500.53069929 -99.46484375 508.8828125 C-107.45308425 521.44945599 -115.45653551 534.00605663 -123.49023438 546.54370117 C-127.36174719 552.58801137 -131.21852557 558.64131521 -135.06103516 564.70410156 C-137.85220868 569.10347525 -140.65741236 573.4938033 -143.46484375 577.8828125 C-143.96306641 578.6655957 -144.46128906 579.44837891 -144.97460938 580.25488281 C-146.33623702 582.38760811 -147.71050485 584.51151311 -149.08984375 586.6328125 C-149.67451416 587.55441162 -149.67451416 587.55441162 -150.27099609 588.49462891 C-152.34865475 591.65461129 -153.86422487 593.63489614 -157.46484375 594.8828125 C-159.70043945 594.48657227 -159.70043945 594.48657227 -162.140625 593.57421875 C-163.04337158 593.24301025 -163.94611816 592.91180176 -164.8762207 592.57055664 C-165.83359131 592.19922607 -166.79096191 591.82789551 -167.77734375 591.4453125 C-168.76629639 591.07204834 -169.75524902 590.69878418 -170.77416992 590.31420898 C-178.86818176 587.21438866 -186.72302528 583.7842634 -194.46484375 579.8828125 C-195.21266113 579.51478516 -195.96047852 579.14675781 -196.73095703 578.76757812 C-199.1094455 577.59361482 -201.47585529 576.39817344 -203.83984375 575.1953125 C-204.95709839 574.64242554 -204.95709839 574.64242554 -206.09692383 574.07836914 C-211.1979004 571.42274622 -211.1979004 571.42274622 -212.359375 569.07348633 C-212.51379255 565.86610512 -211.2249349 564.36173097 -209.44140625 561.71875 C-208.75836426 560.69193115 -208.07532227 559.6651123 -207.37158203 558.60717773 C-206.61111054 557.49064913 -205.85052817 556.37419605 -205.08984375 555.2578125 C-204.31360965 554.09862832 -203.53872678 552.93853826 -202.76513672 551.77758789 C-201.15074372 549.35711786 -199.53053711 546.94069594 -197.90625 544.52685547 C-194.07863349 538.82775311 -190.33867885 533.07138565 -186.58984375 527.3203125 C-185.16806918 525.14576767 -183.74619708 522.9712866 -182.32421875 520.796875 C-178.7191202 515.27711527 -175.13239487 509.74575826 -171.55615234 504.20727539 C-164.57951929 493.40748928 -157.53578666 482.65117315 -150.5078125 471.88476562 C-146.15721087 465.21936492 -141.80933679 458.55219641 -137.46484375 451.8828125 C-136.93842285 451.07521484 -136.41200195 450.26761719 -135.86962891 449.43554688 C-129.93692691 440.32837937 -124.10467412 431.17479664 -118.46484375 421.8828125 C-125.03922392 425.83858362 -131.23317472 430.12299979 -137.33984375 434.7578125 C-143.64973993 439.54559756 -150.06105412 444.12873489 -156.60058594 448.60009766 C-160.36456612 451.18992897 -164.0994718 453.82156175 -167.83984375 456.4453125 C-178.04645064 463.59761439 -188.27686762 470.71540503 -198.51074219 477.82861328 C-201.49897552 479.90654677 -204.48599239 481.98621766 -207.47265625 484.06640625 C-218.44549536 491.70801225 -229.42988319 499.33117099 -240.46484375 506.8828125 C-241.81884277 507.8106958 -241.81884277 507.8106958 -243.20019531 508.75732422 C-246.18308017 510.80086114 -249.16750995 512.8421235 -252.15234375 514.8828125 C-253.09795166 515.53064697 -254.04355957 516.17848145 -255.01782227 516.84594727 C-255.91170654 517.45623779 -256.80559082 518.06652832 -257.7265625 518.6953125 C-258.52022217 519.23800781 -259.31388184 519.78070312 -260.1315918 520.33984375 C-267.00793725 524.88713927 -267.00793725 524.88713927 -269.52734375 524.86328125 C-272.26866347 523.47604083 -273.59121344 521.62606394 -275.46484375 519.1953125 C-276.24988281 518.19886719 -277.03492188 517.20242188 -277.84375 516.17578125 C-278.26543457 515.64001465 -278.68711914 515.10424805 -279.12158203 514.55224609 C-281.4684556 511.63550283 -283.94469041 508.83114831 -286.40234375 506.0078125 C-292.0294902 499.49641297 -297.30402991 492.76703679 -302.46484375 485.8828125 C-303.0475 485.13644531 -303.63015625 484.39007812 -304.23046875 483.62109375 C-305.65234375 481.7578125 -305.65234375 481.7578125 -307.46484375 478.8828125 C-306.28333025 475.338272 -305.45937702 474.93554765 -302.40625 472.94921875 C-301.13056152 472.11003906 -301.13056152 472.11003906 -299.82910156 471.25390625 C-298.90452148 470.65707031 -297.97994141 470.06023437 -297.02734375 469.4453125 C-295.07545204 468.1654695 -293.12363008 466.88552011 -291.171875 465.60546875 C-290.19686035 464.97012207 -289.2218457 464.33477539 -288.21728516 463.68017578 C-284.53219436 461.273786 -280.8725983 458.83045292 -277.21484375 456.3828125 C-275.72801294 455.39170448 -274.24102352 454.40083439 -272.75390625 453.41015625 C-269.30083408 451.10833374 -265.84967601 448.8036669 -262.39956665 446.49740601 C-243.56652354 433.90981669 -224.67765925 421.40883792 -205.75439453 408.95727539 C-196.32573327 402.75239645 -186.90818198 396.53233992 -177.52496338 390.25891113 C-172.84066468 387.12993894 -168.15229502 384.00705901 -163.46484375 380.8828125 C-185.68820815 383.16075966 -207.89509094 385.5823555 -230.09704208 388.05924988 C-234.56518981 388.55771808 -239.0334555 389.05512323 -243.5017395 389.55236816 C-246.53827214 389.89035306 -249.57480094 390.22837238 -252.61132812 390.56640625 C-253.74759663 390.69289378 -253.74759663 390.69289378 -254.90682006 390.82193661 C-263.47721308 391.77611527 -272.04734705 392.73253821 -280.61694336 393.69384766 C-287.53975182 394.47040242 -294.46302626 395.24264867 -301.38686115 396.00999951 C-305.01715786 396.41250876 -308.64718925 396.81712867 -312.27664757 397.2271347 C-316.29529388 397.68108106 -320.31493406 398.12556537 -324.3347168 398.56933594 C-325.50716949 398.70331284 -326.67962219 398.83728973 -327.88760376 398.97532654 C-343.47024558 400.67436892 -343.47024558 400.67436892 -348.46484375 399.8828125 C-350.41667348 396.95506791 -350.83163763 395.73328152 -351.33447266 392.38647461 C-351.54446396 391.02376686 -351.54446396 391.02376686 -351.75869751 389.63352966 C-351.90149139 388.65231644 -352.04428528 387.67110321 -352.19140625 386.66015625 C-352.34394867 385.64490372 -352.49649109 384.62965118 -352.65365601 383.58363342 C-352.97498056 381.43139029 -353.29247512 379.27857242 -353.60644531 377.12524414 C-354.08464859 373.85583111 -354.57850863 370.58906442 -355.07421875 367.32226562 C-355.38506663 365.2267035 -355.6949914 363.1310042 -356.00390625 361.03515625 C-356.1507486 360.06811264 -356.29759094 359.10106903 -356.44888306 358.10472107 C-358.33994098 344.9421744 -358.33994098 344.9421744 -357.46484375 339.8828125 C-353.90055763 337.50662176 -351.7498177 337.3982803 -347.50268555 336.97241211 C-346.79012572 336.89861611 -346.0775659 336.82482012 -345.34341335 336.74878788 C-342.95102824 336.50301293 -340.55762337 336.26918135 -338.1640625 336.03515625 C-336.45124715 335.86143772 -334.73851069 335.68693976 -333.02584839 335.51171875 C-329.33679802 335.13583907 -325.64727897 334.76511726 -321.95730591 334.39840698 C-316.13143405 333.81935302 -310.30671254 333.22929668 -304.48217773 332.63696289 C-298.41078551 332.01992348 -292.33934553 331.40339737 -286.26753235 330.79051208 C-265.7648629 328.71998317 -245.26991717 326.57728852 -224.77578735 324.42410278 C-219.06311942 323.82391288 -213.35030378 323.22513813 -207.63745117 322.62670898 C-198.91317693 321.7127603 -190.18897804 320.79809616 -181.46484375 319.8828125 C-182.22124901 319.5802504 -182.22124901 319.5802504 -182.99293518 319.27157593 C-183.71528854 318.98263458 -184.43764191 318.69369324 -185.18188477 318.39599609 C-186.42052528 317.90054291 -186.42052528 317.90054291 -187.68418884 317.39508057 C-189.58121794 316.63626477 -191.47824123 315.87743443 -193.3752594 315.11859131 C-198.86250678 312.92361596 -204.34986639 310.72892178 -209.83740234 308.53466797 C-220.46071064 304.2865118 -231.08351051 300.03712555 -241.70225525 295.77757263 C-247.33095565 293.51974853 -252.96027914 291.26348084 -258.58984375 289.0078125 C-259.71186188 288.55816132 -260.83388 288.10851013 -261.98989868 287.64523315 C-275.30995114 282.3098573 -288.64449583 277.01328507 -302.00390625 271.77734375 C-302.64519093 271.52592369 -303.2864756 271.27450363 -303.94719315 271.01546478 C-310.75677857 268.34596935 -317.56848571 265.68200296 -324.38330078 263.02587891 C-326.61361938 262.15400361 -328.843926 261.28209766 -331.07421875 260.41015625 C-332.06765289 260.02463089 -333.06108704 259.63910553 -334.08462524 259.24189758 C-340.64991675 256.67171907 -347.07427251 253.86044766 -353.46484375 250.8828125 C-352.90068703 245.31604051 -351.43608928 240.71436638 -349.296875 235.5625 C-348.82093147 234.39172409 -348.82093147 234.39172409 -348.33537292 233.19729614 C-347.66406458 231.55025907 -346.98896852 229.90476128 -346.31030273 228.26074219 C-345.29027595 225.78914809 -344.28180074 223.31310288 -343.27539062 220.8359375 C-332.5871103 194.6309902 -332.5871103 194.6309902 -328.46484375 191.8828125 C-325.6103258 192.77354712 -323.0230785 193.76045859 -320.29296875 194.94921875 C-319.47139282 195.29406311 -318.64981689 195.63890747 -317.80334473 195.99420166 C-315.10156433 197.13177009 -312.40842446 198.28847843 -309.71484375 199.4453125 C-307.8433309 200.23723993 -305.9712555 201.02783919 -304.09863281 201.81713867 C-300.32312872 203.41074238 -296.55082102 205.01155358 -292.78125 206.61914062 C-288.15122209 208.59296848 -283.5141812 210.549301 -278.87109375 212.4921875 C-278.22163788 212.76395309 -277.57218201 213.03571869 -276.90304565 213.3157196 C-275.63167324 213.84757059 -274.36026093 214.37932619 -273.08880615 214.91098022 C-271.20064983 215.70125325 -269.31332015 216.4934676 -267.42626953 217.28637695 C-256.17877153 222.01230947 -244.90611563 226.67642086 -233.62985229 231.33320618 C-228.10337389 233.61662199 -222.58080362 235.9094087 -217.05859375 238.203125 C-215.22640451 238.96387869 -213.39421049 239.72462083 -211.56201172 240.48535156 C-208.86096528 241.60685233 -206.1600353 242.72862832 -203.45953369 243.85144043 C-192.82468478 248.27293343 -182.17231519 252.63977266 -171.46484375 256.8828125 C-173.1501852 252.31293505 -175.56733261 249.11504396 -178.77734375 245.5078125 C-179.57096313 244.59914429 -179.57096313 244.59914429 -180.38061523 243.67211914 C-181.50175168 242.38896209 -182.62559574 241.10816639 -183.75195312 239.82958984 C-186.52770357 236.67482444 -189.27622363 233.49654961 -192.02734375 230.3203125 C-192.57173096 229.69334473 -193.11611816 229.06637695 -193.67700195 228.42041016 C-197.59014119 223.90969793 -201.45546487 219.36092614 -205.30322266 214.79443359 C-208.80255894 210.648522 -212.34476597 206.54131175 -215.90234375 202.4453125 C-225.38124924 191.53182244 -234.77231626 180.54581713 -244.09716797 169.50048828 C-245.48943792 167.85372271 -246.88489848 166.20971183 -248.28125 164.56640625 C-252.51338008 159.58255002 -256.72221773 154.58721978 -260.83984375 149.5078125 C-264.46209611 145.0546492 -268.19352693 140.70932533 -271.96484375 136.3828125 C-278.66015317 128.70161318 -285.10442723 120.84395745 -291.46484375 112.8828125 C-290.02190934 108.08447422 -287.14030429 105.1524036 -283.64453125 101.734375 C-283.06704132 101.15875824 -282.48955139 100.58314148 -281.89456177 99.99008179 C-280.67246342 98.77469137 -279.44677964 97.56289692 -278.21777344 96.35449219 C-276.36014251 94.52777347 -274.51316198 92.69083533 -272.66796875 90.8515625 C-267.26278114 85.48241587 -261.85355291 80.15760538 -256.03833008 75.22802734 C-254.94465329 74.29301429 -253.87946328 73.32406021 -252.83862305 72.33056641 C-249.12774731 68.88951979 -249.12774731 68.88951979 -246.1484375 68.859375 C-242.28270735 70.33364181 -240.23589642 73.12042966 -237.71484375 76.2578125 C-237.18826172 76.89267578 -236.66167969 77.52753906 -236.11914062 78.18164062 C-234.5553257 80.07227957 -233.00829404 81.97553429 -231.46484375 83.8828125 C-230.29695313 85.30980469 -230.29695313 85.30980469 -229.10546875 86.765625 C-227.66643474 88.52502789 -226.23027992 90.28678926 -224.796875 92.05078125 C-220.11229993 97.73975433 -215.27624181 103.30110931 -210.46484375 108.8828125 C-199.04057685 122.13610524 -199.04057685 122.13610524 -194.02734375 128.3203125 C-189.92569104 133.37135318 -185.67893364 138.28409646 -181.40698242 143.19067383 C-176.48483858 148.84680271 -171.6341962 154.56040841 -166.80322266 160.29443359 C-164.54716948 162.97190203 -162.28777769 165.64654207 -160.02734375 168.3203125 C-159.35251953 169.11888672 -159.35251953 169.11888672 -158.6640625 169.93359375 C-154.74356768 174.56690581 -150.78637688 179.16824142 -146.82470703 183.76635742 C-142.88285733 188.35656318 -139.06837634 193.03553497 -135.3046875 197.7734375 C-133.45799831 200.07690859 -133.45799831 200.07690859 -130.46484375 201.8828125 C-127.98984375 199.9028125 -127.98984375 199.9028125 -125.46484375 197.8828125 C-127.50410439 189.4030661 -129.54597703 180.92394986 -131.58984375 172.4453125 C-131.746203 171.79668243 -131.90256226 171.14805237 -132.06365967 170.47976685 C-136.53585662 151.93060659 -141.0448868 133.39102012 -145.60778809 114.86392212 C-147.62683064 106.66316136 -149.63974123 98.46089264 -151.65332031 90.25878906 C-152.74670172 85.80514303 -153.84156444 81.35186641 -154.93801498 76.89897537 C-156.60226173 70.13957222 -158.26070087 63.37879038 -159.90945053 56.61558914 C-160.69654727 53.38761151 -161.48720719 50.16061681 -162.28320312 46.93481445 C-163.16116474 43.37499835 -164.02903182 39.81286335 -164.89453125 36.25 C-165.15628143 35.19855804 -165.41803162 34.14711609 -165.68771362 33.06381226 C-166.93943517 27.86398733 -167.77294342 23.23288375 -167.46484375 17.8828125 C-148.69166062 10.24484082 -125.04302691 0.66207282 -104.46484375 1.8828125 C-101.93594445 4.4117118 -101.81534103 6.0520347 -101.08984375 9.54345703 C-100.83227295 10.76733124 -100.57470215 11.99120544 -100.30932617 13.25216675 C-100.0275571 14.6315967 -99.74607401 16.0110851 -99.46484375 17.390625 C-99.16100465 18.85410581 -98.85670987 20.31749207 -98.55200195 21.78079224 C-97.5087372 26.8119263 -96.48514285 31.84697727 -95.46484375 36.8828125 C-95.27839294 37.80259384 -95.09194214 38.72237518 -94.89984131 39.67002869 C-91.94447993 54.26249603 -89.02932537 68.86294729 -86.12097168 83.46484375 C-85.03126129 88.93387212 -83.93939623 94.40247023 -82.84765625 99.87109375 C-81.57284744 106.25683559 -80.29845809 112.64265916 -79.02661133 119.0289917 C-77.12230464 128.58957108 -75.21235291 138.14889523 -73.28125 147.70410156 C-72.78848107 150.14744746 -72.29588182 152.59082752 -71.80331421 155.03421402 C-71.35249704 157.26549851 -70.89859894 159.49614131 -70.44458008 161.72677612 C-70.17774156 163.04975297 -69.9110488 164.37275923 -69.64453125 165.69580078 C-69.41491699 166.82736603 -69.18530273 167.95893127 -68.94873047 169.12478638 C-68.46484375 171.8828125 -68.46484375 171.8828125 -68.46484375 174.8828125 C-61.03984375 173.8928125 -61.03984375 173.8928125 -53.46484375 172.8828125 C-53.10583984 171.58142334 -52.74683594 170.28003418 -52.37695312 168.93920898 C-52.13316422 168.05547607 -51.88937531 167.17174316 -51.63819885 166.26123047 C-51.06880817 164.19718532 -50.49942159 162.13313903 -49.93003845 160.0690918 C-48.41940268 154.59297249 -46.90873041 149.11686326 -45.39791393 143.6407938 C-44.4631675 140.25272363 -43.52845196 136.86464494 -42.59375 133.4765625 C-42.39764696 132.76573454 -42.20154392 132.05490658 -41.99949837 131.32253838 C-38.96438846 120.32074823 -35.93061587 109.31858978 -32.89743042 98.31626892 C-31.03003964 91.54270913 -29.16229511 84.76924689 -27.29447746 77.99580479 C-25.97583969 73.21381842 -24.65738317 68.43178224 -23.33935547 63.64962769 C-23.08488081 62.72638356 -22.83040615 61.80313944 -22.56822014 60.85191822 C-22.06189484 59.01494701 -21.55560403 57.17796629 -21.04934883 55.34097576 C-19.83644272 50.94095131 -18.6219423 46.54137886 -17.40377808 42.14280701 C-16.94347926 40.48046481 -16.48320252 38.81811651 -16.02294922 37.15576172 C-15.80227217 36.35884824 -15.58159512 35.56193476 -15.35423088 34.74087238 C-14.15767834 30.4128111 -12.97474809 26.08147787 -11.81077862 21.74454021 C-11.32064299 19.92025266 -10.82594966 18.09719151 -10.33106995 16.27418518 C-9.75740339 14.15963893 -9.19125913 12.04302938 -8.6346283 9.92393494 C-8.38789871 9.02099197 -8.14116913 8.11804901 -7.88696289 7.18774414 C-7.6822084 6.41983047 -7.47745392 5.65191681 -7.26649475 4.86073303 C-5.64076771 0.84956247 -4.35917631 -0.1474355 0 0 Z M-138.16015625 234.984375 C-157.05795672 258.75076135 -166.02041657 288.75112003 -162.77734375 319.0078125 C-159.55278046 345.25564415 -149.23138027 367.36695546 -131.46484375 386.8828125 C-130.89507812 387.53507813 -130.3253125 388.18734375 -129.73828125 388.859375 C-111.37295322 408.73160174 -82.53131011 420.14650961 -55.9296875 421.203125 C-36.80958058 421.65424412 -19.01435275 419.90035468 -1.46484375 411.8828125 C0.27539062 411.09390625 0.27539062 411.09390625 2.05078125 410.2890625 C14.08682089 404.55761505 23.89083697 397.01130919 33.53515625 387.8828125 C34.32019531 387.150625 35.10523438 386.4184375 35.9140625 385.6640625 C55.5020672 366.83836594 66.87598133 339.19451214 67.73828125 312.17578125 C68.2602681 278.16351712 57.99248766 249.75423836 34.53515625 224.8828125 C33.91125 224.19445312 33.28734375 223.50609375 32.64453125 222.796875 C13.49580144 202.44129247 -15.82286053 192.36842754 -43.24145508 191.52929688 C-79.96147434 191.17447512 -114.07492976 207.42455846 -138.16015625 234.984375 Z " fill="#155dfb" transform="translate(571.46484375,192.1171875)"/>
<path d="M0 0 C2.64 0 5.28 0 8 0 C2.93575355 2.72460196 -2.56806697 4.07756337 -8.0625 5.6875 C-9.16400391 6.02072266 -10.26550781 6.35394531 -11.40039062 6.69726562 C-12.45548828 7.00728516 -13.51058594 7.31730469 -14.59765625 7.63671875 C-16.04410522 8.06537231 -16.04410522 8.06537231 -17.51977539 8.50268555 C-20 9 -20 9 -23 8 C-22.34 8 -21.68 8 -21 8 C-21 7.34 -21 6.68 -21 6 C-18.81613582 5.32151792 -16.62769916 4.6577449 -14.4375 4 C-13.21933594 3.62875 -12.00117187 3.2575 -10.74609375 2.875 C-7.02076651 2.00485057 -3.80934051 1.84311596 0 2 C0 1.34 0 0.68 0 0 Z " fill="#155dfb" transform="translate(765,427)"/>
<path d="M0 0 C0.33 0.66 0.66 1.32 1 2 C-1.97809664 2.36658158 -4.95678055 2.71848547 -7.9375 3.0625 C-8.76830078 3.16626953 -9.59910156 3.27003906 -10.45507812 3.37695312 C-16.1863235 4.02366953 -21.28890597 3.82410338 -27 3 C-27 2.67 -27 2.34 -27 2 C-24.18814406 1.66027199 -21.37571764 1.32809788 -18.5625 1 C-17.3878418 0.85691406 -17.3878418 0.85691406 -16.18945312 0.7109375 C-10.75624381 0.08488869 -5.46925737 -0.08759571 0 0 Z " fill="#155dfb" transform="translate(294,523)"/>
<path d="M0 0 C2 3 2 3 1.35546875 6.6171875 C0.97916396 8.03996532 0.58927963 9.45920511 0.1875 10.875 C-0.19492545 12.28881531 -0.57645681 13.70287281 -0.95703125 15.1171875 C-1.13959473 15.78331055 -1.3221582 16.44943359 -1.51025391 17.13574219 C-2.10680687 19.40656893 -2.57887502 21.69060493 -3 24 C-3.99 24.33 -4.98 24.66 -6 25 C-4.67429579 16.45269656 -2.48931859 8.27758852 0 0 Z " fill="#155dfb" transform="translate(529,325)"/>
<path d="M0 0 C6.95782348 2.06854212 13.9523438 4.9682292 20 9 C16.25105057 10.24964981 13.84864723 9.75598428 10 9 C9.01 8.34 8.02 7.68 7 7 C7 6.34 7 5.68 7 5 C5.5459375 4.5978125 5.5459375 4.5978125 4.0625 4.1875 C3.051875 3.795625 2.04125 3.40375 1 3 C0.67 2.01 0.34 1.02 0 0 Z " fill="#155dfb" transform="translate(466,599)"/>
<path d="M0 0 C0 0.33 0 0.66 0 1 C-1.65 1 -3.3 1 -5 1 C-5 1.66 -5 2.32 -5 3 C-7.39531933 3.64779076 -9.79121748 4.29329009 -12.1875 4.9375 C-12.86103516 5.11990234 -13.53457031 5.30230469 -14.22851562 5.49023438 C-17.80148458 6.4488358 -21.36156738 7.32883282 -25 8 C-24.34 7.67 -23.68 7.34 -23 7 C-23 6.34 -23 5.68 -23 5 C-20.48283718 4.15389485 -17.96220727 3.32303233 -15.4375 2.5 C-14.73302734 2.26152344 -14.02855469 2.02304687 -13.30273438 1.77734375 C-8.67877023 0.28574241 -4.85697889 -0.25529455 0 0 Z " fill="#155dfb" transform="translate(507,384)"/>
<path d="M0 0 C1.50162803 4.56001269 -0.27009105 7.4658306 -2.3125 11.5625 C-2.63412109 12.23474609 -2.95574219 12.90699219 -3.28710938 13.59960938 C-4.70913807 16.540026 -6.18600579 19.27900869 -8 22 C-9.18771723 18.57056481 -8.80226223 16.62215325 -7.5625 13.25 C-7.27503906 12.45078125 -6.98757813 11.6515625 -6.69140625 10.828125 C-6.46324219 10.22484375 -6.23507812 9.6215625 -6 9 C-5.34 9 -4.68 9 -4 9 C-3.71125 8.071875 -3.4225 7.14375 -3.125 6.1875 C-2 3 -2 3 0 0 Z " fill="#155dfb" transform="translate(422,440)"/>
<path d="M0 0 C0.66 0 1.32 0 2 0 C3.36678479 3.11963179 4.71623991 6.24646237 6.0625 9.375 C6.45244141 10.26445313 6.84238281 11.15390625 7.24414062 12.0703125 C7.60830078 12.92109375 7.97246094 13.771875 8.34765625 14.6484375 C8.68804932 15.43395996 9.02844238 16.21948242 9.37915039 17.02880859 C10 19 10 19 9 21 C6.47757685 19.73878842 6.32913383 18.85702127 5.2734375 16.2890625 C4.9640625 15.53882813 4.6546875 14.78859375 4.3359375 14.015625 C4.01882813 13.22671875 3.70171875 12.4378125 3.375 11.625 C2.88773438 10.45324219 2.88773438 10.45324219 2.390625 9.2578125 C0 3.39174107 0 3.39174107 0 0 Z " fill="#155dfb" transform="translate(656,631)"/>
<path d="M0 0 C0 0.66 0 1.32 0 2 C-5.63526965 3.20484722 -11.14536115 3.1129643 -16.875 3.0625 C-17.84953125 3.05798828 -18.8240625 3.05347656 -19.828125 3.04882812 C-22.21881434 3.03710906 -24.6093744 3.02070219 -27 3 C-27 2.67 -27 2.34 -27 2 C-24.00051609 1.66134859 -21.00055074 1.32894927 -18 1 C-17.16082031 0.90460937 -16.32164062 0.80921875 -15.45703125 0.7109375 C-10.26859055 0.14785091 -5.21873039 -0.09664316 0 0 Z " fill="#155dfb" transform="translate(370,515)"/>
<path d="M0 0 C-2.90600261 1.25664978 -4.79604584 2 -8 2 C-8 2.66 -8 3.32 -8 4 C-13.89738492 6.29342747 -18.66606918 7.34548714 -25 7 C-21.06059243 4.37372829 -16.99044148 3.23035856 -12.5 1.8125 C-11.19869141 1.38420898 -11.19869141 1.38420898 -9.87109375 0.94726562 C-9.03707031 0.68236328 -8.20304688 0.41746094 -7.34375 0.14453125 C-6.58255859 -0.09934326 -5.82136719 -0.34321777 -5.03710938 -0.59448242 C-3 -1 -3 -1 0 0 Z " fill="#155dfb" transform="translate(719,381)"/>
<path d="M0 0 C0.66 0.33 1.32 0.66 2 1 C-2.0114936 5.39970265 -6.58833101 9.42485876 -12 12 C-13.32 11.67 -14.64 11.34 -16 11 C-10.72 7.37 -5.44 3.74 0 0 Z " fill="#155dfb" transform="translate(385,588)"/>
<path d="M0 0 C0.66 0.33 1.32 0.66 2 1 C-1.42166518 5.70478962 -5.57905197 9.27653164 -10 13 C-10.66 11.68 -11.32 10.36 -12 9 C-11.21753906 8.43410156 -10.43507813 7.86820313 -9.62890625 7.28515625 C-8.61699219 6.55167969 -7.60507812 5.81820312 -6.5625 5.0625 C-5.55316406 4.33160156 -4.54382813 3.60070312 -3.50390625 2.84765625 C-1.17707392 1.22678115 -1.17707392 1.22678115 0 0 Z " fill="#155dfb" transform="translate(596,587)"/>
<path d="M0 0 C7.03482474 -0.23668569 13.1834265 0.2120463 20 2 C20 2.66 20 3.32 20 4 C20.99 4.33 21.98 4.66 23 5 C15.1753241 4.32545897 7.65443386 2.73123042 0 1 C0 0.67 0 0.34 0 0 Z " fill="#155dfb" transform="translate(703,529)"/>
<path d="M0 0 C4.05819183 0.65503282 7.53971282 1.94559121 11.3125 3.5625 C12.38113281 4.01753906 13.44976562 4.47257812 14.55078125 4.94140625 C15.76314453 5.46541016 15.76314453 5.46541016 17 6 C16.01 6.66 15.02 7.32 14 8 C11.30680224 7.15819174 8.88095733 6.25214747 6.3125 5.125 C5.61060547 4.82980469 4.90871094 4.53460938 4.18554688 4.23046875 C2.45181161 3.49923347 0.72518427 2.75118724 -1 2 C-0.67 1.34 -0.34 0.68 0 0 Z " fill="#155dfb" transform="translate(327,420)"/>
<path d="M0 0 C-1.58667578 3.90285767 -4.13350481 6.33520982 -7.125 9.25 C-8.03507813 10.14203125 -8.94515625 11.0340625 -9.8828125 11.953125 C-10.58148437 12.62859375 -11.28015625 13.3040625 -12 14 C-12.33 13.01 -12.66 12.02 -13 11 C-11.21427748 9.16052663 -9.42197551 7.32842259 -7.625 5.5 C-7.11710938 4.97535156 -6.60921875 4.45070313 -6.0859375 3.91015625 C-2.2265625 0 -2.2265625 0 0 0 Z " fill="#155dfb" transform="translate(656,376)"/>
<path d="M0 0 C0.33 1.98 0.66 3.96 1 6 C-0.5 4.625 -0.5 4.625 -2 3 C-2 2.34 -2 1.68 -2 1 C-2.68707031 1.23976563 -3.37414062 1.47953125 -4.08203125 1.7265625 C-4.98308594 2.02304687 -5.88414062 2.31953125 -6.8125 2.625 C-7.70582031 2.92664063 -8.59914063 3.22828125 -9.51953125 3.5390625 C-12 4 -12 4 -15 2 C-13.44240657 1.46467177 -11.87861955 0.94734622 -10.3125 0.4375 C-9.44238281 0.14746094 -8.57226562 -0.14257812 -7.67578125 -0.44140625 C-4.75368926 -1.05141961 -2.85599447 -0.77703633 0 0 Z " fill="#155dfb" transform="translate(807,354)"/>
<path d="M0 0 C3.47614371 1.73807186 3.94440065 5.67379518 5.1796875 9.1875 C6.0683335 12.23428628 6.34166418 14.83960636 6 18 C3.52621876 15.52621876 2.96861769 13.43825655 1.875 10.125 C1.52179687 9.07570313 1.16859375 8.02640625 0.8046875 6.9453125 C0 4 0 4 0 0 Z " fill="#155dfb" transform="translate(612,679)"/>
<path d="M0 0 C4.18238834 0.54769371 6.59868545 2.89888889 9.75 5.5625 C11.22726562 6.80193359 11.22726562 6.80193359 12.734375 8.06640625 C13.48203125 8.70449219 14.2296875 9.34257813 15 10 C14.01 10.66 13.02 11.32 12 12 C11.319375 11.29875 10.63875 10.5975 9.9375 9.875 C7.22379838 7.14570239 4.31945276 4.68645559 1.35546875 2.234375 C0.90816406 1.82703125 0.46085938 1.4196875 0 1 C0 0.67 0 0.34 0 0 Z " fill="#155dfb" transform="translate(766,610)"/>
<path d="M0 0 C-2.28185979 2.6858405 -3.73875274 3.40853749 -7.23046875 3.73046875 C-8.03291016 3.81103516 -8.83535156 3.89160156 -9.66210938 3.97460938 C-10.91217773 4.07999023 -10.91217773 4.07999023 -12.1875 4.1875 C-13.03248047 4.26935547 -13.87746094 4.35121094 -14.74804688 4.43554688 C-16.83092268 4.63559709 -18.91535003 4.81937284 -21 5 C-17.77038428 2.84692286 -15.38872346 2.22765131 -11.625 1.375 C-10.50351562 1.11460937 -9.38203125 0.85421875 -8.2265625 0.5859375 C-5.3847292 0.06986608 -2.87555316 -0.11846848 0 0 Z " fill="#155dfb" transform="translate(459,195)"/>
<path d="M0 0 C1.00271664 3.15139514 1.05537349 3.8542803 -0.1875 7.125 C-1.99400788 9.99049526 -2.86809018 10.9200311 -6 12 C-6 8.36804504 -5.04546845 7.25286089 -3 4.3125 C-2.443125 3.50425781 -1.88625 2.69601562 -1.3125 1.86328125 C-0.879375 1.24839844 -0.44625 0.63351562 0 0 Z " fill="#155dfb" transform="translate(412,678)"/>
<path d="M0 0 C4.21814817 3.9700218 7.61227103 8.30840284 11 13 C10.01 13 9.02 13 8 13 C5.95703125 10.91796875 5.95703125 10.91796875 3.8125 8.1875 C3.09707031 7.29417969 2.38164062 6.40085937 1.64453125 5.48046875 C0 3 0 3 0 0 Z " fill="#155dfb" transform="translate(269,675)"/>
<path d="M0 0 C0.68359375 1.765625 0.68359375 1.765625 1 4 C-0.21484375 5.921875 -0.21484375 5.921875 -1.9375 7.75 C-2.50339844 8.36359375 -3.06929687 8.9771875 -3.65234375 9.609375 C-4.09707031 10.06828125 -4.54179688 10.5271875 -5 11 C-6.32 10.67 -7.64 10.34 -9 10 C-8.27683594 9.29423828 -8.27683594 9.29423828 -7.5390625 8.57421875 C-6.90742187 7.95160156 -6.27578125 7.32898438 -5.625 6.6875 C-4.68527344 5.76517578 -4.68527344 5.76517578 -3.7265625 4.82421875 C-1.81913393 2.91187472 -1.81913393 2.91187472 0 0 Z " fill="#155dfb" transform="translate(615,568)"/>
<path d="M0 0 C4.83628305 0.99043705 9.47618873 1.95698846 14 4 C14 4.66 14 5.32 14 6 C14.66 6.33 15.32 6.66 16 7 C12.3945768 6.37099631 9.15080065 5.41162002 5.75 4.0625 C4.87859375 3.72347656 4.0071875 3.38445312 3.109375 3.03515625 C1 2 1 2 0 0 Z " fill="#155dfb" transform="translate(556,386)"/>
<path d="M0 0 C3 2 3 2 3.6875 4.125 C4.08477078 7.77989122 4.06231163 11.32361387 4 15 C4.66 15.33 5.32 15.66 6 16 C5.34 17.32 4.68 18.64 4 20 C3.32749476 17.41806023 2.66182099 14.83467929 2 12.25 C1.71382813 11.15558594 1.71382813 11.15558594 1.421875 10.0390625 C0.53484036 6.55428354 0 3.61876278 0 0 Z " fill="#155dfb" transform="translate(435,341)"/>
<path d="M0 0 C0.66 0 1.32 0 2 0 C3.60178593 1.78104718 5.13381926 3.62537278 6.625 5.5 C7.85089844 7.03140625 7.85089844 7.03140625 9.1015625 8.59375 C9.72804688 9.3878125 10.35453125 10.181875 11 11 C10.34 11.66 9.68 12.32 9 13 C7.49106184 11.40423801 5.99308924 9.79810089 4.5 8.1875 C3.6646875 7.29417969 2.829375 6.40085937 1.96875 5.48046875 C0 3 0 3 0 0 Z " fill="#155dfb" transform="translate(293,318)"/>
<path d="M0 0 C0.66 0.33 1.32 0.66 2 1 C1.09648559 2.63234937 0.1766431 4.25566824 -0.75 5.875 C-1.26046875 6.77992188 -1.7709375 7.68484375 -2.296875 8.6171875 C-4.05697297 11.07970989 -5.21006094 11.94467523 -8 13 C-6.40956621 7.91061189 -3.2553049 4.12543357 0 0 Z " fill="#155dfb" transform="translate(374,737)"/>
<path d="M0 0 C0.33 0 0.66 0 1 0 C1.02726927 2.35424675 1.04696719 4.70816962 1.0625 7.0625 C1.07410156 8.37347656 1.08570313 9.68445313 1.09765625 11.03515625 C1.00452335 14.8163519 0.61448726 18.27920707 0 22 C-0.33 22 -0.66 22 -1 22 C-2.26092312 14.29814525 -1.5832711 7.61540316 0 0 Z " fill="#155dfb" transform="translate(569,728)"/>
<path d="M0 0 C4.16138263 -0.08159574 7.9472484 0.01751476 12 1 C12 1.33 12 1.66 12 2 C7.48184719 2.88277755 3.22487306 3.10589503 -1.375 3.0625 C-3.24285156 3.04896484 -3.24285156 3.04896484 -5.1484375 3.03515625 C-6.55996094 3.01775391 -6.55996094 3.01775391 -8 3 C-8 2.67 -8 2.34 -8 2 C-5.36 1.67 -2.72 1.34 0 1 C0 0.67 0 0.34 0 0 Z " fill="#155dfb" transform="translate(508,794)"/>
<path d="M0 0 C0.33 0.66 0.66 1.32 1 2 C1.66 2 2.32 2 3 2 C4.84851083 4.77276624 5.5205764 6.39992766 6.25 9.5625 C6.44078125 10.34753906 6.6315625 11.13257813 6.828125 11.94140625 C6.88484375 12.62074219 6.9415625 13.30007813 7 14 C6.34 14.66 5.68 15.32 5 16 C4.1605118 13.89828133 3.32860344 11.79353375 2.5 9.6875 C2.0359375 8.51574219 1.571875 7.34398437 1.09375 6.13671875 C0 3 0 3 0 0 Z " fill="#155dfb" transform="translate(622,708)"/>
<path d="M0 0 C0.66 0.33 1.32 0.66 2 1 C-2.06153846 6.78461538 -2.06153846 6.78461538 -6.8125 7.875 C-7.864375 7.91625 -8.91625 7.9575 -10 8 C-6.97727468 4.74475735 -3.74281699 2.38179263 0 0 Z " fill="#155dfb" transform="translate(361,604)"/>
<path d="M0 0 C1.98 0.66 3.96 1.32 6 2 C2.25 4 2.25 4 0 4 C-0.4021875 5.2065625 -0.4021875 5.2065625 -0.8125 6.4375 C-1.4003125 7.7059375 -1.4003125 7.7059375 -2 9 C-2.99 9.33 -3.98 9.66 -5 10 C-3.14285714 2.42857143 -3.14285714 2.42857143 0 0 Z " fill="#155dfb" transform="translate(242,384)"/>
<path d="M0 0 C3.41742782 1.13914261 4.12880598 2.06390308 6.25 4.875 C6.79140625 5.57367188 7.3328125 6.27234375 7.890625 6.9921875 C8.25671875 7.65476562 8.6228125 8.31734375 9 9 C8.67 9.99 8.34 10.98 8 12 C6.66081194 10.37982158 5.3288031 8.75370657 4 7.125 C3.2575 6.22007812 2.515 5.31515625 1.75 4.3828125 C0 2 0 2 0 0 Z " fill="#155dfb" transform="translate(314,343)"/>
<path d="M0 0 C0.66 0 1.32 0 2 0 C0.84941444 5.39795989 -0.42421759 10.70987333 -2 16 C-2.33 16 -2.66 16 -3 16 C-3.37851209 10.06997733 -2.10575375 5.52760359 0 0 Z " fill="#155dfb" transform="translate(614,242)"/>
<path d="M0 0 C1.74216797 0.15275391 1.74216797 0.15275391 3.51953125 0.30859375 C4.39996094 0.39238281 5.28039062 0.47617187 6.1875 0.5625 C6.1875 0.8925 6.1875 1.2225 6.1875 1.5625 C0.12053301 2.33290851 -5.69764973 2.65956112 -11.8125 2.5625 C-11.8125 1.9025 -11.8125 1.2425 -11.8125 0.5625 C-7.71524731 -0.47917441 -4.19754776 -0.38159525 0 0 Z " fill="#155dfb" transform="translate(264.8125,586.4375)"/>
<path d="M0 0 C0.66 0 1.32 0 2 0 C0.64147869 3.08693704 -0.84510953 5.08641734 -3.375 7.3125 C-3.96023438 7.84488281 -4.54546875 8.37726562 -5.1484375 8.92578125 C-7 10 -7 10 -9.2265625 9.66796875 C-9.81179688 9.44753906 -10.39703125 9.22710938 -11 9 C-10.28972656 8.51789062 -9.57945312 8.03578125 -8.84765625 7.5390625 C-7.92855469 6.90742187 -7.00945312 6.27578125 -6.0625 5.625 C-5.14597656 4.99851562 -4.22945313 4.37203125 -3.28515625 3.7265625 C-0.91612836 2.20228929 -0.91612836 2.20228929 0 0 Z " fill="#155dfb" transform="translate(409,571)"/>
<path d="M0 0 C1.31225809 3.93677426 0.3393954 5.7794262 -0.9375 9.6875 C-1.50791016 11.45673828 -1.50791016 11.45673828 -2.08984375 13.26171875 C-2.39019531 14.16535156 -2.69054687 15.06898438 -3 16 C-3.33 16 -3.66 16 -4 16 C-4.21192221 10.80790596 -3.5912689 6.873261 -2 2 C-1.34 2 -0.68 2 0 2 C0 1.34 0 0.68 0 0 Z " fill="#155dfb" transform="translate(591,318)"/>
<path d="M0 0 C1.31611677 0.95336021 2.62778961 1.91285774 3.9375 2.875 C4.66839844 3.40867187 5.39929688 3.94234375 6.15234375 4.4921875 C8 6 8 6 9 8 C6.75 8.3125 6.75 8.3125 4 8 C1.6875 5.6875 1.6875 5.6875 0 3 C0 2.01 0 1.02 0 0 Z " fill="#155dfb" transform="translate(725,256)"/>
<path d="M0 0 C0.66 0 1.32 0 2 0 C1.71682074 1.60568666 1.42312209 3.20952047 1.125 4.8125 C0.96257813 5.70582031 0.80015625 6.59914063 0.6328125 7.51953125 C0 10 0 10 -2 13 C-2.66 11.68 -3.32 10.36 -4 9 C-3.34 9 -2.68 9 -2 9 C-1.34 6.03 -0.68 3.06 0 0 Z " fill="#155dfb" transform="translate(582,343)"/>
<path d="M0 0 C1.31225809 3.93677426 0.3393954 5.7794262 -0.9375 9.6875 C-1.50791016 11.45673828 -1.50791016 11.45673828 -2.08984375 13.26171875 C-2.39019531 14.16535156 -2.69054687 15.06898438 -3 16 C-3.33 16 -3.66 16 -4 16 C-4.21192221 10.80790596 -3.5912689 6.873261 -2 2 C-1.34 2 -0.68 2 0 2 C0 1.34 0 0.68 0 0 Z " fill="#155dfb" transform="translate(624,214)"/>
<path d="M0 0 C0 0.66 0 1.32 0 2 C-10.55808656 1.03644647 -10.55808656 1.03644647 -15 0 C-15 -0.33 -15 -0.66 -15 -1 C-9.53891111 -2.4002792 -5.30723432 -1.42705634 0 0 Z " fill="#155dfb" transform="translate(819,551)"/>
<path d="M0 0 C3.63 0.33 7.26 0.66 11 1 C6.66061709 3.16969145 4.51609592 3.21326104 -0.25 3.125 C-1.51328125 3.10695313 -2.7765625 3.08890625 -4.078125 3.0703125 C-5.04234375 3.04710937 -6.0065625 3.02390625 -7 3 C-7 2.67 -7 2.34 -7 2 C-4.69 2 -2.38 2 0 2 C0 1.34 0 0.68 0 0 Z " fill="#155dfb" transform="translate(313,520)"/>
<path d="M0 0 C3.3 0.33 6.6 0.66 10 1 C10 1.66 10 2.32 10 3 C11.32 3.33 12.64 3.66 14 4 C12.41632253 3.85795259 10.83306682 3.71119847 9.25 3.5625 C8.36828125 3.48128906 7.4865625 3.40007813 6.578125 3.31640625 C4.30649548 3.03761535 2.20148177 2.61209423 0 2 C0 1.34 0 0.68 0 0 Z " fill="#155dfb" transform="translate(660,519)"/>
<path d="M0 0 C0.33 0.66 0.66 1.32 1 2 C1.66 2.33 2.32 2.66 3 3 C-0.75 6 -0.75 6 -3 6 C-3 6.66 -3 7.32 -3 8 C-4.32 7.67 -5.64 7.34 -7 7 C-4.69 4.69 -2.38 2.38 0 0 Z " fill="#155dfb" transform="translate(628,321)"/>
<path d="M0 0 C0.99 0.33 1.98 0.66 3 1 C0.14723863 3.93200474 -2.65079784 6.64315404 -6 9 C-6.66 8.67 -7.32 8.34 -8 8 C-5.36 5.36 -2.72 2.72 0 0 Z " fill="#155dfb" transform="translate(296,286)"/>
<path d="M0 0 C0.66 0 1.32 0 2 0 C3.32 3.63 4.64 7.26 6 11 C5.34 11.66 4.68 12.32 4 13 C3.32942113 11.2097939 2.6636531 9.41778511 2 7.625 C1.62875 6.62726562 1.2575 5.62953125 0.875 4.6015625 C0 2 0 2 0 0 Z " fill="#155dfb" transform="translate(603,657)"/>
<path d="M0 0 C2.72574271 0.37330824 3.80822085 0.79194601 5.703125 2.84765625 C6.21359375 3.57855469 6.7240625 4.30945313 7.25 5.0625 C8.03117187 6.16271484 8.03117187 6.16271484 8.828125 7.28515625 C9.21484375 7.85105469 9.6015625 8.41695313 10 9 C7 9 7 9 5.17578125 7.28515625 C4.56089844 6.55167969 3.94601562 5.81820313 3.3125 5.0625 C2.68988281 4.33160156 2.06726563 3.60070312 1.42578125 2.84765625 C0 1 0 1 0 0 Z " fill="#155dfb" transform="translate(357,395)"/>
<path d="M0 0 C0 3.70411834 -0.75301769 5.078923 -3 8 C-6.1875 9.3125 -6.1875 9.3125 -9 10 C-8.06409496 8.8944811 -7.12620142 7.79064547 -6.1875 6.6875 C-5.66542969 6.07261719 -5.14335938 5.45773437 -4.60546875 4.82421875 C-3.12827531 3.14575321 -1.59960869 1.56117966 0 0 Z " fill="#155dfb" transform="translate(651,297)"/>
<path d="M0 0 C0.33 0 0.66 0 1 0 C1.08112454 2.58396679 1.14054748 5.16537568 1.1875 7.75 C1.21263672 8.47960937 1.23777344 9.20921875 1.26367188 9.9609375 C1.30981636 13.34486604 1.25324128 15.57858557 -0.51171875 18.515625 C-1.00285156 19.00546875 -1.49398438 19.4953125 -2 20 C-1.85780436 17.79142945 -1.71108153 15.58315013 -1.5625 13.375 C-1.48128906 12.14523437 -1.40007812 10.91546875 -1.31640625 9.6484375 C-1.03336056 6.38467612 -0.58961047 3.22056141 0 0 Z " fill="#155dfb" transform="translate(507,726)"/>
<path d="M0 0 C-0.99 0 -1.98 0 -3 0 C-3 0.99 -3 1.98 -3 3 C-5.31 3 -7.62 3 -10 3 C-10.33 2.01 -10.66 1.02 -11 0 C-3.57142857 -1.28571429 -3.57142857 -1.28571429 0 0 Z " fill="#155dfb" transform="translate(548,612)"/>
<path d="M0 0 C5.23175837 -0.38281159 8.37802694 0.78145293 13 3 C13 3.66 13 4.32 13 5 C8.39146203 4.27991594 4.32762591 2.68704061 0 1 C0 0.67 0 0.34 0 0 Z " fill="#155dfb" transform="translate(360,499)"/>
<path d="M0 0 C0.97582031 0.19464844 1.95164062 0.38929688 2.95703125 0.58984375 C4.06111328 0.82380859 4.06111328 0.82380859 5.1875 1.0625 C5.1875 1.3925 5.1875 1.7225 5.1875 2.0625 C-0.65590558 3.30577778 -5.07946495 2.63550962 -10.8125 1.0625 C-10.8125 0.7325 -10.8125 0.4025 -10.8125 0.0625 C-6.8710998 -0.96788433 -3.97634848 -0.81443282 0 0 Z " fill="#155dfb" transform="translate(770.8125,481.9375)"/>
<path d="M0 0 C0 3.77910478 -0.99703962 4.46106101 -3.5 7.1875 C-4.47453125 8.26064453 -4.47453125 8.26064453 -5.46875 9.35546875 C-5.9740625 9.89816406 -6.479375 10.44085938 -7 11 C-7.33 10.01 -7.66 9.02 -8 8 C-6.85546875 6.2109375 -6.85546875 6.2109375 -5.1875 4.375 C-4.64480469 3.76398438 -4.10210937 3.15296875 -3.54296875 2.5234375 C-2 1 -2 1 0 0 Z " fill="#155dfb" transform="translate(436,423)"/>
<path d="M0 0 C-3.63 2.31 -7.26 4.62 -11 7 C-11 6.01 -11 5.02 -11 4 C-9.35546875 2.578125 -9.35546875 2.578125 -7.1875 1.25 C-6.47980469 0.80140625 -5.77210938 0.3528125 -5.04296875 -0.109375 C-3 -1 -3 -1 0 0 Z " fill="#155dfb" transform="translate(370,672)"/>
<path d="M0 0 C-3.63 2.31 -7.26 4.62 -11 7 C-11 6.01 -11 5.02 -11 4 C-9.35546875 2.578125 -9.35546875 2.578125 -7.1875 1.25 C-6.47980469 0.80140625 -5.77210938 0.3528125 -5.04296875 -0.109375 C-3 -1 -3 -1 0 0 Z " fill="#155dfb" transform="translate(403,649)"/>
<path d="M0 0 C3.96 0.33 7.92 0.66 12 1 C12 1.33 12 1.66 12 2 C3.585 2.495 3.585 2.495 -5 3 C-5 2.67 -5 2.34 -5 2 C-3.35 1.67 -1.7 1.34 0 1 C0 0.67 0 0.34 0 0 Z " fill="#155dfb" transform="translate(331,578)"/>
<path d="M0 0 C-0.66 0 -1.32 0 -2 0 C-2.33 0.99 -2.66 1.98 -3 3 C-6.3 3 -9.6 3 -13 3 C-8.83099908 0.22066605 -4.8978425 -1.63261417 0 0 Z " fill="#155dfb" transform="translate(643,405)"/>
<path d="M0 0 C0.33 1.32 0.66 2.64 1 4 C1.66 4 2.32 4 3 4 C3.33 7.3 3.66 10.6 4 14 C0.6133629 10.6133629 0.58036746 9.8662468 0.3125 5.3125 C0.24675781 4.31863281 0.18101562 3.32476562 0.11328125 2.30078125 C0.07589844 1.54152344 0.03851563 0.78226562 0 0 Z " fill="#155dfb" transform="translate(488,300)"/>
<path d="M0 0 C0.66 0 1.32 0 2 0 C0.82744291 3.33727786 -0.18868404 5.77437487 -3 8 C-3.66 8 -4.32 8 -5 8 C-5 7.34 -5 6.68 -5 6 C-5.66 5.67 -6.32 5.34 -7 5 C-6.21625 4.731875 -5.4325 4.46375 -4.625 4.1875 C-1.71885077 3.15185568 -1.71885077 3.15185568 0 0 Z " fill="#155dfb" transform="translate(419,779)"/>
<path d="M0 0 C0.66 0 1.32 0 2 0 C0.54955729 4.10958767 -1.51110752 7.43258745 -4 11 C-4.64453125 9.234375 -4.64453125 9.234375 -5 7 C-4.07421875 5.078125 -4.07421875 5.078125 -2.6875 3.25 C-2.23761719 2.63640625 -1.78773438 2.0228125 -1.32421875 1.390625 C-0.88722656 0.93171875 -0.45023437 0.4728125 0 0 Z " fill="#155dfb" transform="translate(446,737)"/>
<path d="M0 0 C0.66 0 1.32 0 2 0 C0.54955729 4.10958767 -1.51110752 7.43258745 -4 11 C-4.64453125 9.234375 -4.64453125 9.234375 -5 7 C-4.07421875 5.078125 -4.07421875 5.078125 -2.6875 3.25 C-2.23761719 2.63640625 -1.78773438 2.0228125 -1.32421875 1.390625 C-0.88722656 0.93171875 -0.45023437 0.4728125 0 0 Z " fill="#155dfb" transform="translate(455,723)"/>
<path d="M0 0 C0 3.41321235 -0.66867466 4.39472885 -2.5 7.1875 C-2.9640625 7.90292969 -3.428125 8.61835937 -3.90625 9.35546875 C-4.2671875 9.89816406 -4.628125 10.44085937 -5 11 C-5.61328125 9.19921875 -5.61328125 9.19921875 -6 7 C-2.82191781 1.4109589 -2.82191781 1.4109589 0 0 Z " fill="#155dfb" transform="translate(470,701)"/>
<path d="M0 0 C0.66 0 1.32 0 2 0 C2.99 2.97 3.98 5.94 5 9 C4.34 9.66 3.68 10.32 3 11 C2.49384702 9.73160474 1.99530901 8.46016898 1.5 7.1875 C1.2215625 6.47980469 0.943125 5.77210938 0.65625 5.04296875 C0 3 0 3 0 0 Z " fill="#155dfb" transform="translate(595,635)"/>
<path d="M0 0 C0.66 0 1.32 0 2 0 C4.6875 2.75 4.6875 2.75 7 6 C6.64453125 8.203125 6.64453125 8.203125 6 10 C4.99106869 8.90398831 3.99311775 7.79786082 3 6.6875 C2.1646875 5.76517578 2.1646875 5.76517578 1.3125 4.82421875 C0 3 0 3 0 0 Z " fill="#155dfb" transform="translate(378,418)"/>
<path d="M0 0 C1.40907283 2.81814566 0.50872691 4.17277204 -0.4375 7.125 C-0.72496094 8.03507812 -1.01242187 8.94515625 -1.30859375 9.8828125 C-1.53675781 10.58148438 -1.76492188 11.28015625 -2 12 C-2.33 12 -2.66 12 -3 12 C-3.125 4.375 -3.125 4.375 -2 1 C-1.34 0.67 -0.68 0.34 0 0 Z " fill="#155dfb" transform="translate(579,357)"/>
<path d="M0 0 C2.53910197 0.38520564 3.72751123 0.70097943 5.484375 2.62890625 C5.90203125 3.26699219 6.3196875 3.90507812 6.75 4.5625 C7.17796875 5.20316406 7.6059375 5.84382813 8.046875 6.50390625 C8.36140625 6.99761719 8.6759375 7.49132812 9 8 C8.01 8 7.02 8 6 8 C4.39453125 6.25 4.39453125 6.25 2.8125 4 C2.28269531 3.2575 1.75289063 2.515 1.20703125 1.75 C0.80871094 1.1725 0.41039062 0.595 0 0 Z " fill="#155dfb" transform="translate(283,308)"/>
<path d="M0 0 C0.33 0 0.66 0 1 0 C1.125 7.625 1.125 7.625 0 11 C-0.66 11 -1.32 11 -2 11 C-2.33 11.66 -2.66 12.32 -3 13 C-2.68991116 11.39536551 -2.37683713 9.79130769 -2.0625 8.1875 C-1.88847656 7.29417969 -1.71445312 6.40085938 -1.53515625 5.48046875 C-1 3 -1 3 0 0 Z " fill="#155dfb" transform="translate(565,195)"/>
<path d="M0 0 C0.33 0.66 0.66 1.32 1 2 C1.99 2 2.98 2 4 2 C4 4.64 4 7.28 4 10 C3.67 9.34 3.34 8.68 3 8 C2.34 8 1.68 8 1 8 C0.67 5.36 0.34 2.72 0 0 Z " fill="#155dfb" transform="translate(620,700)"/>
<path d="M0 0 C0 3.41321235 -0.66867466 4.39472885 -2.5 7.1875 C-2.9640625 7.90292969 -3.428125 8.61835937 -3.90625 9.35546875 C-4.2671875 9.89816406 -4.628125 10.44085937 -5 11 C-5.61328125 9.19921875 -5.61328125 9.19921875 -6 7 C-2.82191781 1.4109589 -2.82191781 1.4109589 0 0 Z " fill="#155dfb" transform="translate(498,657)"/>
<path d="M0 0 C-1.08203125 1.51953125 -1.08203125 1.51953125 -3 3 C-6.13671875 3.07421875 -6.13671875 3.07421875 -9.6875 2.6875 C-10.86699219 2.56761719 -12.04648437 2.44773437 -13.26171875 2.32421875 C-14.16535156 2.21722656 -15.06898438 2.11023438 -16 2 C-16 1.67 -16 1.34 -16 1 C-10.62915894 0.31798844 -5.41499441 -0.11521265 0 0 Z " fill="#155dfb" transform="translate(283,524)"/>
<path d="M0 0 C0.33 1.32 0.66 2.64 1 4 C-2.63423209 6.32590854 -5.77088331 6.16265833 -10 6 C-6.55549263 3.70366176 -4.06187717 3.45983515 0 3 C0 2.01 0 1.02 0 0 Z " fill="#155dfb" transform="translate(821,409)"/>
<path d="M0 0 C2.97 0.99 5.94 1.98 9 3 C8.67 3.99 8.34 4.98 8 6 C7.34 6 6.68 6 6 6 C6 5.34 6 4.68 6 4 C3.03 3.505 3.03 3.505 0 3 C0 2.01 0 1.02 0 0 Z " fill="#155dfb" transform="translate(282,401)"/>
<path d="M0 0 C-0.66 0 -1.32 0 -2 0 C-2.33 0.66 -2.66 1.32 -3 2 C-5.8125 3.25 -5.8125 3.25 -9 4 C-11.19921875 3.046875 -11.19921875 3.046875 -13 2 C-11.39935157 1.46845258 -9.79431126 0.95011647 -8.1875 0.4375 C-7.29417969 0.14746094 -6.40085937 -0.14257812 -5.48046875 -0.44140625 C-3 -1 -3 -1 0 0 Z " fill="#155dfb" transform="translate(748,372)"/>
<path d="M0 0 C0.66 0 1.32 0 2 0 C0.4169423 4.2742558 -2.50568404 6.26531794 -6 9 C-6 8.01 -6 7.02 -6 6 C-4.68 5.34 -3.36 4.68 -2 4 C-2 3.34 -2 2.68 -2 2 C-1.34 2 -0.68 2 0 2 C0 1.34 0 0.68 0 0 Z " fill="#155dfb" transform="translate(697,334)"/>
<path d="M0 0 C0.33 0.99 0.66 1.98 1 3 C1.66 3 2.32 3 3 3 C3 6.63 3 10.26 3 14 C2.67 14 2.34 14 2 14 C-0.29612756 4.58997722 -0.29612756 4.58997722 0 0 Z " fill="#155dfb" transform="translate(469,206)"/>
<path d="M0 0 C1.32 0 2.64 0 4 0 C4 1.65 4 3.3 4 5 C2.68 4.67 1.36 4.34 0 4 C0 2.68 0 1.36 0 0 Z " fill="#155dfb" transform="translate(755,675)"/>
<path d="M0 0 C1.58246707 -0.08153933 3.16616273 -0.13943557 4.75 -0.1875 C6.07257812 -0.23970703 6.07257812 -0.23970703 7.421875 -0.29296875 C10.44671583 0.05076316 11.75583602 1.00227459 14 3 C4.58997722 2.03644647 4.58997722 2.03644647 0 1 C0 0.67 0 0.34 0 0 Z " fill="#155dfb" transform="translate(684,525)"/>
<path d="M0 0 C1.9375 0.625 1.9375 0.625 4 2 C4.625 5.0625 4.625 5.0625 5 8 C5.66 8.33 6.32 8.66 7 9 C6.01 9 5.02 9 4 9 C0 2.25 0 2.25 0 0 Z " fill="#155dfb" transform="translate(621,435)"/>
<path d="M0 0 C-0.66 0 -1.32 0 -2 0 C-2 0.66 -2 1.32 -2 2 C-5.47325181 3.1577506 -8.36067448 3.06866652 -12 3 C-7.97869817 0.31913211 -4.73968522 -1.57989507 0 0 Z " fill="#155dfb" transform="translate(684,392)"/>
<path d="M0 0 C0.99 0.33 1.98 0.66 3 1 C0.69 3.31 -1.62 5.62 -4 8 C-4.33 7.01 -4.66 6.02 -5 5 C-3.35 3.35 -1.7 1.7 0 0 Z " fill="#155dfb" transform="translate(688,343)"/>
<path d="M0 0 C0.33 0 0.66 0 1 0 C1.1875 2.875 1.1875 2.875 1 6 C-2 8 -2 8 -4.1875 7.625 C-4.785625 7.41875 -5.38375 7.2125 -6 7 C-5.67 6.34 -5.34 5.68 -5 5 C-3.35 5 -1.7 5 0 5 C0 3.35 0 1.7 0 0 Z " fill="#155dfb" transform="translate(562,787)"/>
<path d="M0 0 C0.91078492 2.55019778 1.17843392 3.59554978 0.0625 6.125 C-0.288125 6.74375 -0.63875 7.3625 -1 8 C-1 8.66 -1 9.32 -1 10 C-1.66 10 -2.32 10 -3 10 C-3.75 8.375 -3.75 8.375 -4 6 C-2.0625 2.75 -2.0625 2.75 0 0 Z " fill="#155dfb" transform="translate(363,753)"/>
<path d="M0 0 C0.66 0.33 1.32 0.66 2 1 C-0.25 3.5625 -0.25 3.5625 -3 6 C-4.32 5.67 -5.64 5.34 -7 5 C-4.69 3.35 -2.38 1.7 0 0 Z " fill="#155dfb" transform="translate(320,631)"/>
<path d="M0 0 C3.3 0.99 6.6 1.98 10 3 C8.02 3.99 8.02 3.99 6 5 C2.75 3.625 2.75 3.625 0 2 C0 1.34 0 0.68 0 0 Z " fill="#155dfb" transform="translate(291,405)"/>
<path d="M0 0 C-2.94017338 1.52453435 -5.85472185 2.95157395 -9 4 C-9.99 3.67 -10.98 3.34 -12 3 C-11.34 3 -10.68 3 -10 3 C-10 2.34 -10 1.68 -10 1 C-6.21812119 -0.83691257 -4.05431692 -1.15837626 0 0 Z " fill="#155dfb" transform="translate(494,388)"/>
<path d="M0 0 C2.1875 -0.3125 2.1875 -0.3125 5 0 C7.8125 2.5 7.8125 2.5 10 5 C5.59885603 4.49701212 3.28804981 2.91227269 0 0 Z " fill="#155dfb" transform="translate(736,269)"/>
<path d="M0 0 C0.33 0 0.66 0 1 0 C1.08131463 1.43655854 1.13933559 2.8744483 1.1875 4.3125 C1.23970703 5.51326172 1.23970703 5.51326172 1.29296875 6.73828125 C0.93801608 9.47851584 0.10633718 10.29171079 -2 12 C-2.21278058 7.53160785 -1.59138085 4.17737474 0 0 Z " fill="#155dfb" transform="translate(504,756)"/>
<path d="M0 0 C2.97903734 2.97903734 4 5.80285329 4 10 C3.34 10 2.68 10 2 10 C0.39644899 6.49223216 -0.22036864 3.85645121 0 0 Z " fill="#155dfb" transform="translate(588,614)"/>
<path d="M0 0 C3.36591866 1.44253657 5.51047079 3.33264727 8 6 C7.01 6.33 6.02 6.66 5 7 C4.67 6.01 4.34 5.02 4 4 C1.99983534 2.79117904 1.99983534 2.79117904 0 2 C0 1.34 0 0.68 0 0 Z " fill="#155dfb" transform="translate(675,535)"/>
<path d="M0 0 C0.99 0.33 1.98 0.66 3 1 C2.125 5.75 2.125 5.75 1 8 C0.34 8 -0.32 8 -1 8 C-0.67 5.36 -0.34 2.72 0 0 Z " fill="#155dfb" transform="translate(636,523)"/>
<path d="M0 0 C4.95 0.99 4.95 0.99 10 2 C10 2.99 10 3.98 10 5 C5 3 5 3 0 1 C0 0.67 0 0.34 0 0 Z " fill="#155dfb" transform="translate(383,508)"/>
<path d="M0 0 C6.75 1.625 6.75 1.625 9 5 C6.23723823 4.47731534 3.6739124 3.89130413 1 3 C0.67 2.01 0.34 1.02 0 0 Z " fill="#155dfb" transform="translate(276,464)"/>
<path d="M0 0 C1.48206495 0.254496 2.96068615 0.52911762 4.4375 0.8125 C5.67306641 1.03873047 5.67306641 1.03873047 6.93359375 1.26953125 C7.95646484 1.63111328 7.95646484 1.63111328 9 2 C9.33 2.99 9.66 3.98 10 5 C8.51800098 4.55090939 7.03944764 4.09043436 5.5625 3.625 C4.73878906 3.36976563 3.91507812 3.11453125 3.06640625 2.8515625 C1 2 1 2 0 0 Z " fill="#155dfb" transform="translate(377,771)"/>
<path d="M0 0 C0.8125 1.6875 0.8125 1.6875 1 4 C-1.4375 6.75 -1.4375 6.75 -4 9 C-4 5.00095031 -2.27413033 3.19799578 0 0 Z " fill="#155dfb" transform="translate(382,724)"/>
<path d="M0 0 C-4.43076923 3.07692308 -4.43076923 3.07692308 -7.3125 2.6875 C-8.1478125 2.3471875 -8.1478125 2.3471875 -9 2 C-8.67 1.34 -8.34 0.68 -8 0 C-4.71585695 -0.95067299 -3.30306592 -1.10102197 0 0 Z " fill="#155dfb" transform="translate(309,714)"/>
<path d="M0 0 C0.33 0 0.66 0 1 0 C1.17835515 4.54805635 0.99785435 7.8794254 -1 12 C-1.33 12 -1.66 12 -2 12 C-2.17835515 7.45194365 -1.99785435 4.1205746 0 0 Z " fill="#155dfb" transform="translate(512,699)"/>
<path d="M0 0 C-2.64 1.65 -5.28 3.3 -8 5 C-8 4.01 -8 3.02 -8 2 C-3.71900826 -1.23966942 -3.71900826 -1.23966942 0 0 Z " fill="#155dfb" transform="translate(380,665)"/>
<path d="M0 0 C-0.66 0 -1.32 0 -2 0 C-2 0.66 -2 1.32 -2 2 C-4.91482778 2.80967438 -6.46113217 3.21845993 -9.3125 2.0625 C-9.869375 1.711875 -10.42625 1.36125 -11 1 C-3.375 -1.125 -3.375 -1.125 0 0 Z " fill="#155dfb" transform="translate(560,609)"/>
<path d="M0 0 C0.66 0.99 1.32 1.98 2 3 C1.34 3 0.68 3 0 3 C0.33 5.31 0.66 7.62 1 10 C0.01 9.67 -0.98 9.34 -2 9 C-1.125 2.25 -1.125 2.25 0 0 Z " fill="#155dfb" transform="translate(220,434)"/>
<path d="M0 0 C2.97 0.99 5.94 1.98 9 3 C8.01 3.66 7.02 4.32 6 5 C3.375 4.3125 3.375 4.3125 1 3 C0.67 2.01 0.34 1.02 0 0 Z " fill="#155dfb" transform="translate(347,428)"/>
<path d="M0 0 C0.33 0.66 0.66 1.32 1 2 C1.66 2 2.32 2 3 2 C4.16552619 6.19589427 4.08954032 6.82091936 2 11 C1.34 7.37 0.68 3.74 0 0 Z " fill="#155dfb" transform="translate(428,313)"/>
<path d="M0 0 C1.98120645 2.97180967 2.65962579 4.51116436 3 8 C2.0625 10.3125 2.0625 10.3125 1 12 C-0.3271261 8.0186217 -0.06915913 4.14954773 0 0 Z " fill="#155dfb" transform="translate(424,292)"/>
<path d="M0 0 C0.99 0.33 1.98 0.66 3 1 C1.35 2.65 -0.3 4.3 -2 6 C-2 3 -2 3 0 0 Z " fill="#155dfb" transform="translate(399,698)"/>
<path d="M0 0 C4.29425875 1.07356469 4.74740471 1.5084773 7 5 C6.34 5.66 5.68 6.32 5 7 C3.35 4.69 1.7 2.38 0 0 Z " fill="#155dfb" transform="translate(279,690)"/>
<path d="M0 0 C0.33 0 0.66 0 1 0 C2.42857143 8.42857143 2.42857143 8.42857143 0 13 C-0.33 13 -0.66 13 -1 13 C-0.67 8.71 -0.34 4.42 0 0 Z " fill="#155dfb" transform="translate(515,669)"/>
<path d="M0 0 C1.32 0 2.64 0 4 0 C3.67 2.97 3.34 5.94 3 9 C2.67 9 2.34 9 2 9 C2 6.69 2 4.38 2 2 C1.01 1.67 0.02 1.34 -1 1 C-0.67 0.67 -0.34 0.34 0 0 Z " fill="#155dfb" transform="translate(518,630)"/>
<path d="M0 0 C0.66 0 1.32 0 2 0 C2 0.99 2 1.98 2 3 C2.639375 3.28875 3.27875 3.5775 3.9375 3.875 C6 5 6 5 7 7 C4.20171644 6.61402985 3.1794116 6.19863427 1.25 4.0625 C0 2 0 2 0 0 Z " fill="#155dfb" transform="translate(657,519)"/>
<path d="M0 0 C-0.66 0 -1.32 0 -2 0 C-2 0.66 -2 1.32 -2 2 C-4.64 2 -7.28 2 -10 2 C-6.19832777 -0.53444815 -4.31588991 -1.33941411 0 0 Z " fill="#155dfb" transform="translate(678,454)"/>
<path d="M0 0 C6.75 0.75 6.75 0.75 9 3 C6 4 6 4 2.8125 2.5625 C1.884375 2.046875 0.95625 1.53125 0 1 C0 0.67 0 0.34 0 0 Z " fill="#155dfb" transform="translate(335,424)"/>
<path d="M0 0 C0.33 0 0.66 0 1 0 C0.125 6.75 0.125 6.75 -1 9 C-1.66 9 -2.32 9 -3 9 C-2.01 6.03 -1.02 3.06 0 0 Z " fill="#155dfb" transform="translate(236,395)"/>
<path d="M0 0 C0.33 1.32 0.66 2.64 1 4 C1.99 4 2.98 4 4 4 C3.67 4.99 3.34 5.98 3 7 C1.68 7 0.36 7 -1 7 C-0.67 4.69 -0.34 2.38 0 0 Z " fill="#155dfb" transform="translate(575,369)"/>
<path d="M0 0 C2 3 2 3 1.625 5.6875 C1.41875 6.450625 1.2125 7.21375 1 8 C0.34 8 -0.32 8 -1 8 C-1.33 8.66 -1.66 9.32 -2 10 C-1.34 6.7 -0.68 3.4 0 0 Z " fill="#155dfb" transform="translate(529,325)"/>
<path d="M0 0 C0.78375 0.04125 1.5675 0.0825 2.375 0.125 C1.385 1.61 1.385 1.61 0.375 3.125 C-0.285 3.125 -0.945 3.125 -1.625 3.125 C-1.955 3.785 -2.285 4.445 -2.625 5.125 C-2.625 4.465 -2.625 3.805 -2.625 3.125 C-3.285 2.795 -3.945 2.465 -4.625 2.125 C-2.625 0.125 -2.625 0.125 0 0 Z " fill="#155dfb" transform="translate(708.625,323.875)"/>
<path d="M0 0 C0.33 0 0.66 0 1 0 C1.125 7.75 1.125 7.75 0 10 C-0.66 10 -1.32 10 -2 10 C-1.34 6.7 -0.68 3.4 0 0 Z " fill="#155dfb" transform="translate(558,220)"/>
<path d="M0 0 C2 3 2 3 1.625 5.6875 C1.41875 6.450625 1.2125 7.21375 1 8 C0.34 8 -0.32 8 -1 8 C-1.33 8.66 -1.66 9.32 -2 10 C-1.34 6.7 -0.68 3.4 0 0 Z " fill="#155dfb" transform="translate(561,209)"/>
<path d="" fill="#155dfb" transform="translate(0,0)"/>
<path d="" fill="#155dfb" transform="translate(0,0)"/>
<path d="" fill="#155dfb" transform="translate(0,0)"/>
<path d="" fill="#155dfb" transform="translate(0,0)"/>
<path d="" fill="#155dfb" transform="translate(0,0)"/>
<path d="" fill="#155dfb" transform="translate(0,0)"/>
<path d="" fill="#155dfb" transform="translate(0,0)"/>
<path d="" fill="#155dfb" transform="translate(0,0)"/>
<path d="" fill="#155dfb" transform="translate(0,0)"/>
<path d="" fill="#155dfb" transform="translate(0,0)"/>
<path d="" fill="#155dfb" transform="translate(0,0)"/>
<path d="" fill="#155dfb" transform="translate(0,0)"/>
<path d="" fill="#155dfb" transform="translate(0,0)"/>
<path d="" fill="#155dfb" transform="translate(0,0)"/>
</svg>
